<svg width="82" height="42" viewBox="0 0 82 42" fill="none" xmlns="http://www.w3.org/2000/svg">
<g filter="url(#filter0_d_204_3)">
<path d="M7.28 7.72L7.46 10.12L7.36 9.8C7.57333 9.29333 7.88 8.86667 8.28 8.52C8.69333 8.16 9.12 7.88667 9.56 7.7C10.0133 7.5 10.4067 7.4 10.74 7.4L10.64 9.24C10.0133 9.2 9.46 9.32 8.98 9.6C8.51333 9.88 8.14 10.2533 7.86 10.72C7.59333 11.1867 7.46 11.6867 7.46 12.22V16H5.62V7.72H7.28ZM16.628 16.2C15.6813 16.2 14.868 16.0133 14.188 15.64C13.508 15.2533 12.9813 14.7333 12.608 14.08C12.248 13.4133 12.068 12.6533 12.068 11.8C12.068 10.9867 12.2746 10.2467 12.688 9.58C13.1013 8.91333 13.6546 8.38 14.348 7.98C15.0413 7.58 15.8146 7.38 16.668 7.38C17.7613 7.38 18.668 7.7 19.388 8.34C20.108 8.98 20.5946 9.86 20.848 10.98L14.028 13.38L13.588 12.28L19.188 10.24L18.788 10.5C18.628 10.06 18.3613 9.68 17.988 9.36C17.6146 9.02667 17.128 8.86 16.528 8.86C16.0213 8.86 15.568 8.98667 15.168 9.24C14.768 9.48 14.4546 9.81333 14.228 10.24C14.0013 10.6667 13.888 11.1533 13.888 11.7C13.888 12.2733 14.008 12.78 14.248 13.22C14.488 13.6467 14.8146 13.9867 15.228 14.24C15.6546 14.48 16.1346 14.6 16.668 14.6C17.028 14.6 17.3746 14.5333 17.708 14.4C18.0546 14.2667 18.3746 14.0933 18.668 13.88L19.528 15.26C19.1146 15.54 18.648 15.7667 18.128 15.94C17.6213 16.1133 17.1213 16.2 16.628 16.2ZM26.5386 16.2C25.7786 16.2 25.0853 16.02 24.4586 15.66C23.8453 15.2867 23.3586 14.7667 22.9986 14.1C22.6386 13.42 22.4586 12.64 22.4586 11.76C22.4586 10.84 22.6453 10.0533 23.0186 9.4C23.4053 8.74667 23.9253 8.24667 24.5786 7.9C25.2319 7.55333 25.9653 7.38 26.7786 7.38C27.4319 7.38 28.0519 7.52 28.6386 7.8C29.2386 8.08 29.7053 8.46667 30.0386 8.96L29.9586 9.62V0.519999H31.7986V16H29.9386V13.94L30.1386 14.46C29.7519 14.9667 29.2519 15.3867 28.6386 15.72C28.0253 16.04 27.3253 16.2 26.5386 16.2ZM27.1186 14.62C27.6119 14.62 28.0519 14.5333 28.4386 14.36C28.8253 14.1733 29.1453 13.92 29.3986 13.6C29.6519 13.28 29.8319 12.9 29.9386 12.46V10.9C29.8319 10.5 29.6386 10.1533 29.3586 9.86C29.0919 9.55333 28.7653 9.31333 28.3786 9.14C28.0053 8.95333 27.5853 8.86 27.1186 8.86C26.6119 8.86 26.1453 8.98667 25.7186 9.24C25.3053 9.48 24.9719 9.81333 24.7186 10.24C24.4653 10.6667 24.3386 11.16 24.3386 11.72C24.3386 12.2667 24.4653 12.76 24.7186 13.2C24.9719 13.6267 25.3119 13.9733 25.7386 14.24C26.1653 14.4933 26.6253 14.62 27.1186 14.62ZM35.0341 16V0.519999H36.8541V9.64L36.8141 9.3C37.0941 8.75333 37.5207 8.3 38.0941 7.94C38.6807 7.58 39.3674 7.4 40.1541 7.4C40.9407 7.4 41.5807 7.63333 42.0741 8.1C42.5807 8.55333 42.8407 9.14667 42.8541 9.88V16H40.9741V10.54C40.9607 10.0867 40.8274 9.72 40.5741 9.44C40.3341 9.14667 39.9541 9 39.4341 9C38.9541 9 38.5207 9.14 38.1341 9.42C37.7474 9.68667 37.4407 10.0533 37.2141 10.52C37.0007 10.9867 36.8941 11.52 36.8941 12.12V16H35.0341ZM49.9288 16.2C48.9821 16.2 48.1688 16.0133 47.4888 15.64C46.8088 15.2533 46.2821 14.7333 45.9088 14.08C45.5488 13.4133 45.3688 12.6533 45.3688 11.8C45.3688 10.9867 45.5754 10.2467 45.9888 9.58C46.4021 8.91333 46.9554 8.38 47.6488 7.98C48.3421 7.58 49.1154 7.38 49.9688 7.38C51.0621 7.38 51.9688 7.7 52.6888 8.34C53.4088 8.98 53.8954 9.86 54.1488 10.98L47.3288 13.38L46.8888 12.28L52.4888 10.24L52.0888 10.5C51.9288 10.06 51.6621 9.68 51.2888 9.36C50.9154 9.02667 50.4288 8.86 49.8288 8.86C49.3221 8.86 48.8688 8.98667 48.4688 9.24C48.0688 9.48 47.7554 9.81333 47.5288 10.24C47.3021 10.6667 47.1888 11.1533 47.1888 11.7C47.1888 12.2733 47.3088 12.78 47.5488 13.22C47.7888 13.6467 48.1154 13.9867 48.5288 14.24C48.9554 14.48 49.4354 14.6 49.9688 14.6C50.3288 14.6 50.6754 14.5333 51.0088 14.4C51.3554 14.2667 51.6754 14.0933 51.9688 13.88L52.8288 15.26C52.4154 15.54 51.9488 15.7667 51.4288 15.94C50.9221 16.1133 50.4221 16.2 49.9288 16.2ZM59.9194 16.2C59.146 16.2 58.4394 16.0333 57.7994 15.7C57.1727 15.3667 56.6727 14.88 56.2994 14.24C55.9394 13.5867 55.7594 12.7933 55.7594 11.86C55.7594 10.94 55.9527 10.1467 56.3394 9.48C56.726 8.8 57.2394 8.28 57.8794 7.92C58.5327 7.56 59.246 7.38 60.0194 7.38C60.7927 7.38 61.446 7.56 61.9794 7.92C62.5127 8.26667 62.9194 8.68 63.1994 9.16L63.0794 9.48L63.2594 7.72H64.9794V16H63.1194V13.84L63.3194 14.32C63.266 14.4533 63.146 14.6267 62.9594 14.84C62.786 15.04 62.546 15.2467 62.2394 15.46C61.946 15.6733 61.606 15.8533 61.2194 16C60.8327 16.1333 60.3994 16.2 59.9194 16.2ZM60.4194 14.66C60.886 14.66 61.306 14.5733 61.6794 14.4C62.0527 14.2267 62.3594 13.9867 62.5994 13.68C62.8527 13.36 63.026 12.98 63.1194 12.54V10.92C63.0127 10.52 62.826 10.1733 62.5594 9.88C62.2927 9.57333 61.9727 9.34 61.5994 9.18C61.226 9.00667 60.8127 8.92 60.3594 8.92C59.866 8.92 59.4127 9.04 58.9994 9.28C58.586 9.52 58.2527 9.85333 57.9994 10.28C57.7594 10.7067 57.6394 11.2067 57.6394 11.78C57.6394 12.3133 57.766 12.8 58.0194 13.24C58.2727 13.68 58.6127 14.0267 59.0394 14.28C59.466 14.5333 59.926 14.66 60.4194 14.66ZM71.5581 16.2C70.7981 16.2 70.1048 16.02 69.4781 15.66C68.8648 15.2867 68.3781 14.7667 68.0181 14.1C67.6581 13.42 67.4781 12.64 67.4781 11.76C67.4781 10.84 67.6648 10.0533 68.0381 9.4C68.4248 8.74667 68.9448 8.24667 69.5981 7.9C70.2515 7.55333 70.9848 7.38 71.7981 7.38C72.4515 7.38 73.0715 7.52 73.6581 7.8C74.2581 8.08 74.7248 8.46667 75.0581 8.96L74.9781 9.62V0.519999H76.8181V16H74.9581V13.94L75.1581 14.46C74.7715 14.9667 74.2715 15.3867 73.6581 15.72C73.0448 16.04 72.3448 16.2 71.5581 16.2ZM72.1381 14.62C72.6315 14.62 73.0715 14.5333 73.4581 14.36C73.8448 14.1733 74.1648 13.92 74.4181 13.6C74.6715 13.28 74.8515 12.9 74.9581 12.46V10.9C74.8515 10.5 74.6581 10.1533 74.3781 9.86C74.1115 9.55333 73.7848 9.31333 73.3981 9.14C73.0248 8.95333 72.6048 8.86 72.1381 8.86C71.6315 8.86 71.1648 8.98667 70.7381 9.24C70.3248 9.48 69.9915 9.81333 69.7381 10.24C69.4848 10.6667 69.3581 11.16 69.3581 11.72C69.3581 12.2667 69.4848 12.76 69.7381 13.2C69.9915 13.6267 70.3315 13.9733 70.7581 14.24C71.1848 14.4933 71.6448 14.62 72.1381 14.62ZM6.3 33V26.38H4.88V24.72H6.3V21.22C6.3 20.02 6.56667 19.1 7.1 18.46C7.64667 17.82 8.44667 17.5 9.5 17.5C9.78 17.5 10.0867 17.54 10.42 17.62C10.7667 17.7 11.0667 17.8333 11.32 18.02L10.54 19.36C10.42 19.24 10.2867 19.16 10.14 19.12C9.99333 19.0667 9.84667 19.04 9.7 19.04C9.20667 19.04 8.82667 19.2067 8.56 19.54C8.29333 19.8733 8.16 20.44 8.16 21.24V24.72H10.78V26.38H8.16V33H6.3ZM14.8581 24.72L15.0381 27.12L14.9381 26.8C15.1515 26.2933 15.4581 25.8667 15.8581 25.52C16.2715 25.16 16.6981 24.8867 17.1381 24.7C17.5915 24.5 17.9848 24.4 18.3181 24.4L18.2181 26.24C17.5915 26.2 17.0381 26.32 16.5581 26.6C16.0915 26.88 15.7181 27.2533 15.4381 27.72C15.1715 28.1867 15.0381 28.6867 15.0381 29.22V33H13.1981V24.72H14.8581ZM24.2061 33.2C23.2594 33.2 22.4461 33.0133 21.7661 32.64C21.0861 32.2533 20.5594 31.7333 20.1861 31.08C19.8261 30.4133 19.6461 29.6533 19.6461 28.8C19.6461 27.9867 19.8528 27.2467 20.2661 26.58C20.6794 25.9133 21.2328 25.38 21.9261 24.98C22.6194 24.58 23.3928 24.38 24.2461 24.38C25.3394 24.38 26.2461 24.7 26.9661 25.34C27.6861 25.98 28.1728 26.86 28.4261 27.98L21.6061 30.38L21.1661 29.28L26.7661 27.24L26.3661 27.5C26.2061 27.06 25.9394 26.68 25.5661 26.36C25.1928 26.0267 24.7061 25.86 24.1061 25.86C23.5994 25.86 23.1461 25.9867 22.7461 26.24C22.3461 26.48 22.0328 26.8133 21.8061 27.24C21.5794 27.6667 21.4661 28.1533 21.4661 28.7C21.4661 29.2733 21.5861 29.78 21.8261 30.22C22.0661 30.6467 22.3928 30.9867 22.8061 31.24C23.2328 31.48 23.7128 31.6 24.2461 31.6C24.6061 31.6 24.9528 31.5333 25.2861 31.4C25.6328 31.2667 25.9528 31.0933 26.2461 30.88L27.1061 32.26C26.6928 32.54 26.2261 32.7667 25.7061 32.94C25.1994 33.1133 24.6994 33.2 24.2061 33.2ZM34.5967 33.2C33.6501 33.2 32.8367 33.0133 32.1567 32.64C31.4767 32.2533 30.9501 31.7333 30.5767 31.08C30.2167 30.4133 30.0367 29.6533 30.0367 28.8C30.0367 27.9867 30.2434 27.2467 30.6567 26.58C31.0701 25.9133 31.6234 25.38 32.3167 24.98C33.0101 24.58 33.7834 24.38 34.6367 24.38C35.7301 24.38 36.6367 24.7 37.3567 25.34C38.0767 25.98 38.5634 26.86 38.8167 27.98L31.9967 30.38L31.5567 29.28L37.1567 27.24L36.7567 27.5C36.5967 27.06 36.3301 26.68 35.9567 26.36C35.5834 26.0267 35.0967 25.86 34.4967 25.86C33.9901 25.86 33.5367 25.9867 33.1367 26.24C32.7367 26.48 32.4234 26.8133 32.1967 27.24C31.9701 27.6667 31.8567 28.1533 31.8567 28.7C31.8567 29.2733 31.9767 29.78 32.2167 30.22C32.4567 30.6467 32.7834 30.9867 33.1967 31.24C33.6234 31.48 34.1034 31.6 34.6367 31.6C34.9967 31.6 35.3434 31.5333 35.6767 31.4C36.0234 31.2667 36.3434 31.0933 36.6367 30.88L37.4967 32.26C37.0834 32.54 36.6167 32.7667 36.0967 32.94C35.5901 33.1133 35.0901 33.2 34.5967 33.2ZM44.5073 33.2C43.7473 33.2 43.054 33.02 42.4273 32.66C41.814 32.2867 41.3273 31.7667 40.9673 31.1C40.6073 30.42 40.4273 29.64 40.4273 28.76C40.4273 27.84 40.614 27.0533 40.9873 26.4C41.374 25.7467 41.894 25.2467 42.5473 24.9C43.2007 24.5533 43.934 24.38 44.7473 24.38C45.4007 24.38 46.0207 24.52 46.6073 24.8C47.2073 25.08 47.674 25.4667 48.0073 25.96L47.9273 26.62V17.52H49.7673V33H47.9073V30.94L48.1073 31.46C47.7207 31.9667 47.2207 32.3867 46.6073 32.72C45.994 33.04 45.294 33.2 44.5073 33.2ZM45.0873 31.62C45.5807 31.62 46.0207 31.5333 46.4073 31.36C46.794 31.1733 47.114 30.92 47.3673 30.6C47.6207 30.28 47.8007 29.9 47.9073 29.46V27.9C47.8007 27.5 47.6073 27.1533 47.3273 26.86C47.0607 26.5533 46.734 26.3133 46.3473 26.14C45.974 25.9533 45.554 25.86 45.0873 25.86C44.5807 25.86 44.114 25.9867 43.6873 26.24C43.274 26.48 42.9407 26.8133 42.6873 27.24C42.434 27.6667 42.3073 28.16 42.3073 28.72C42.3073 29.2667 42.434 29.76 42.6873 30.2C42.9407 30.6267 43.2807 30.9733 43.7073 31.24C44.134 31.4933 44.594 31.62 45.0873 31.62ZM52.2828 28.78C52.2828 27.9533 52.4761 27.2067 52.8628 26.54C53.2628 25.8733 53.8095 25.3467 54.5028 24.96C55.1961 24.5733 55.9828 24.38 56.8628 24.38C57.7695 24.38 58.5628 24.5733 59.2428 24.96C59.9228 25.3467 60.4495 25.8733 60.8228 26.54C61.1961 27.2067 61.3828 27.9533 61.3828 28.78C61.3828 29.6067 61.1961 30.36 60.8228 31.04C60.4495 31.7067 59.9161 32.2333 59.2228 32.62C58.5428 33.0067 57.7495 33.2 56.8428 33.2C55.9628 33.2 55.1761 33.02 54.4828 32.66C53.8028 32.2867 53.2628 31.7733 52.8628 31.12C52.4761 30.4533 52.2828 29.6733 52.2828 28.78ZM54.1428 28.8C54.1428 29.3333 54.2628 29.82 54.5028 30.26C54.7428 30.6867 55.0628 31.0267 55.4628 31.28C55.8761 31.5333 56.3295 31.66 56.8228 31.66C57.3428 31.66 57.8028 31.5333 58.2028 31.28C58.6161 31.0267 58.9361 30.6867 59.1628 30.26C59.3895 29.82 59.5028 29.3333 59.5028 28.8C59.5028 28.2667 59.3895 27.7867 59.1628 27.36C58.9361 26.92 58.6161 26.5733 58.2028 26.32C57.8028 26.0533 57.3428 25.92 56.8228 25.92C56.3161 25.92 55.8561 26.0533 55.4428 26.32C55.0428 26.5867 54.7228 26.94 54.4828 27.38C54.2561 27.8067 54.1428 28.28 54.1428 28.8ZM65.5613 24.72L65.7213 26.58L65.6413 26.42C65.9479 25.7933 66.3813 25.3 66.9413 24.94C67.5146 24.58 68.1679 24.4 68.9013 24.4C69.3679 24.4 69.7813 24.4733 70.1413 24.62C70.5013 24.7667 70.7946 24.98 71.0213 25.26C71.2613 25.5267 71.4146 25.86 71.4813 26.26L71.3813 26.32C71.7013 25.72 72.1413 25.2533 72.7013 24.92C73.2746 24.5733 73.8746 24.4 74.5013 24.4C75.3146 24.4 75.9546 24.6333 76.4213 25.1C76.9013 25.5533 77.1479 26.1467 77.1613 26.88V33H75.3013V27.54C75.2879 27.1133 75.1813 26.76 74.9813 26.48C74.7946 26.1867 74.4613 26.0267 73.9813 26C73.5013 26 73.0679 26.1467 72.6813 26.44C72.3079 26.7333 72.0146 27.1133 71.8013 27.58C71.5879 28.0333 71.4746 28.5267 71.4613 29.06V33H69.6013V27.54C69.5879 27.1133 69.4746 26.76 69.2613 26.48C69.0613 26.1867 68.7213 26.0267 68.2413 26C67.7479 26 67.3146 26.1467 66.9413 26.44C66.5679 26.7333 66.2746 27.1133 66.0613 27.58C65.8613 28.0467 65.7613 28.5467 65.7613 29.08V33H63.9013V24.72H65.5613Z" fill="#E78614" fill-opacity="0.1"/>
</g>
<defs>
<filter id="filter0_d_204_3" x="0.879883" y="0.52002" width="80.2812" height="40.6802" filterUnits="userSpaceOnUse" color-interpolation-filters="sRGB">
<feFlood flood-opacity="0" result="BackgroundImageFix"/>
<feColorMatrix in="SourceAlpha" type="matrix" values="0 0 0 0 0 0 0 0 0 0 0 0 0 0 0 0 0 0 127 0" result="hardAlpha"/>
<feOffset dy="4"/>
<feGaussianBlur stdDeviation="2"/>
<feComposite in2="hardAlpha" operator="out"/>
<feColorMatrix type="matrix" values="0 0 0 0 0 0 0 0 0 0 0 0 0 0 0 0 0 0 0.25 0"/>
<feBlend mode="normal" in2="BackgroundImageFix" result="effect1_dropShadow_204_3"/>
<feBlend mode="normal" in="SourceGraphic" in2="effect1_dropShadow_204_3" result="shape"/>
</filter>
</defs>
</svg>
